<?xml version="1.0" encoding="iso-8859-1"?>
<!-- Generator: Adobe Illustrator 19.0.0, SVG Export Plug-In . SVG Version: 6.00 Build 0)  -->
<svg version="1.1" id="Layer_1" xmlns="http://www.w3.org/2000/svg" xmlns:xlink="http://www.w3.org/1999/xlink" x="0px" y="0px"
	 viewBox="0 0 511.995 511.995" style="enable-background:new 0 0 511.995 511.995;" xml:space="preserve">
<g>
	<g>
		<path d="M394.151,121.325L275.454,2.629c-5.606-5.615-15.206-1.638-15.206,6.297v118.287c0,5.146,4.173,9.318,9.318,9.318h118.287
			C395.789,136.531,399.766,126.932,394.151,121.325z"/>
	</g>
</g>
<g>
	<g>
		<path d="M396.779,230.397v-68.266c0-4.71-3.823-8.533-8.533-8.533H251.715c-4.71,0-8.533-3.823-8.533-8.533V8.534
			c0-4.71-3.823-8.533-8.533-8.533H46.918c-4.71,0-8.533,3.823-8.533,8.533v469.326c0,4.71,3.823,8.533,8.533,8.533l177.081,0.008
			c3.251,0,6.221-1.852,7.654-4.779c1.434-2.918,1.084-6.4-0.904-8.977c-19.464-25.164-29.892-55.252-30.225-87.09
			c-0.666-64.34,41.565-122.878,103.388-140.695c27.374-7.885,55.73-7.825,81.978-0.256c4.54,1.271,9.258-1.306,10.564-5.837
			C396.975,236.967,396.779,231.523,396.779,230.397z"/>
	</g>
</g>
<g>
	<g>
		<path d="M472.545,367.303c-7.253-56.993-53.273-103.004-110.266-110.24c-83.608-10.615-154.229,60.022-143.597,143.631
			c7.253,56.993,53.273,103.004,110.266,110.24C412.565,521.557,483.186,450.92,472.545,367.303z M411.379,390.035l-34.133,34.133
			c-1.664,1.664-3.849,2.5-6.033,2.5c-2.185,0-4.369-0.836-6.033-2.5c-3.336-3.336-3.336-8.729,0-12.066l12.279-12.279
			c2.688-2.688,0.785-7.287-3.021-7.287h-88.557c-4.719,0-8.533-3.823-8.533-8.533c0-4.71,3.814-8.533,8.533-8.533h88.566
			c3.797,0,5.7-4.599,3.021-7.287l-12.279-12.279c-3.336-3.336-3.336-8.729,0-12.066c3.336-3.336,8.729-3.336,12.066,0
			l34.133,34.133C414.716,381.297,414.716,386.708,411.379,390.035z"/>
	</g>
</g>
<g>
</g>
<g>
</g>
<g>
</g>
<g>
</g>
<g>
</g>
<g>
</g>
<g>
</g>
<g>
</g>
<g>
</g>
<g>
</g>
<g>
</g>
<g>
</g>
<g>
</g>
<g>
</g>
<g>
</g>
</svg>
