<?xml version="1.0" encoding="iso-8859-1"?>
<!-- Generator: Adobe Illustrator 17.1.0, SVG Export Plug-In . SVG Version: 6.00 Build 0)  -->
<!DOCTYPE svg PUBLIC "-//W3C//DTD SVG 1.1//EN" "http://www.w3.org/Graphics/SVG/1.1/DTD/svg11.dtd">
<svg version="1.1" id="Capa_1" xmlns="http://www.w3.org/2000/svg" xmlns:xlink="http://www.w3.org/1999/xlink" x="0px" y="0px"
	 viewBox="0 0 362 362" style="enable-background:new 0 0 362 362;" xml:space="preserve">
<path d="M181,0C81.196,0,0,81.196,0,181s81.196,181,181,181s181-81.196,181-181S280.804,0,181,0z M297.325,204.987
	c-0.852,5.609-4.803,9.379-9.832,9.379c-2.259,0-4.578-0.782-6.707-2.263l-70.56-49.034c-3.474-2.413-5.264-5.796-4.913-9.279
	c0.352-3.483,2.78-6.44,6.666-8.112l27.334-11.762c-14.878-21.2-39.487-35.097-67.296-35.097c-45.314,0-82.181,36.866-82.181,82.182
	s36.866,82.182,82.181,82.182c8.284,0,15,6.716,15,15s-6.716,15-15,15c-61.856,0-112.181-50.324-112.181-112.182
	S110.161,68.818,172.018,68.818c40.171,0,75.472,21.228,95.291,53.052l29.087-12.516c4.54-1.954,9.076-1.159,11.729,1.928
	c1.884,2.191,2.632,5.301,2.107,8.757L297.325,204.987z"/>
<g>
</g>
<g>
</g>
<g>
</g>
<g>
</g>
<g>
</g>
<g>
</g>
<g>
</g>
<g>
</g>
<g>
</g>
<g>
</g>
<g>
</g>
<g>
</g>
<g>
</g>
<g>
</g>
<g>
</g>
</svg>
